# xmcd
# Track frame offsets:
# 150
# 16896
# 35058
# 52999
# 71087
# 89100
# 110301
# 128618
# 150381
#
# Disc length: 2193 seconds
# Revision: 0
# Processed by: cddbd v1.5.1PL0 Copyright (c) Steve Scherf et al.
# Submitted via: VisiTrax 2.9.10.228 - For more info visit www.synapsa.com
#
DISCID=6f088f09
DTITLE=Various Artist - Hits Monthly Nashville  PHN0309
DYEAR=1900
DGENRE=Karaoke
TTITLE0=Carter, Deana - I'm Just A Girl
TTITLE1=Green, Pat - Wave On Wave
TTITLE2=Allan, Gary - Tough Little Boys
TTITLE3=Jackson, Alan and Jimmy - It's Five O'clock Somewhere
TTITLE4=Urban, Keith - Who Wouldn't Wanna Be Me
TTITLE5=Dixie Chicks - Godspeed (Sweet Dreams)
TTITLE6=McBride, Martina - This One's For The Girls
TTITLE7=Austin, Sherrie - Streets Of Heaven
TTITLE8=Proctor, Rachel - Days Like This
EXTD=
EXTT0=
EXTT1=
EXTT2=
EXTT3=
EXTT4=
EXTT5=
EXTT6=
EXTT7=
EXTT8=
PLAYORDER=
